<mxfile host="app.diagrams.net" modified="2023-06-01T00:01:29.669Z" agent="Mozilla/5.0 (Macintosh; Intel Mac OS X 10_15_7) AppleWebKit/537.36 (KHTML, like Gecko) Chrome/113.0.0.0 Safari/537.36" etag="jqUUH_9dXrTOQubth_6U" version="21.3.6" type="github">
  <diagram id="C5RBs43oDa-KdzZeNtuy" name="Page-1">
    <mxGraphModel dx="1242" dy="725" grid="1" gridSize="10" guides="1" tooltips="1" connect="1" arrows="1" fold="1" page="1" pageScale="1" pageWidth="827" pageHeight="1169" math="0" shadow="0">
      <root>
        <mxCell id="WIyWlLk6GJQsqaUBKTNV-0" />
        <mxCell id="WIyWlLk6GJQsqaUBKTNV-1" parent="WIyWlLk6GJQsqaUBKTNV-0" />
        <mxCell id="7yxY5Xhsj-0c3NoLU8v4-0" value="" style="sketch=0;html=1;dashed=0;whitespace=wrap;fillColor=#2875E2;strokeColor=#ffffff;points=[[0.005,0.63,0],[0.1,0.2,0],[0.9,0.2,0],[0.5,0,0],[0.995,0.63,0],[0.72,0.99,0],[0.5,1,0],[0.28,0.99,0]];verticalLabelPosition=bottom;align=center;verticalAlign=top;shape=mxgraph.kubernetes.icon;prIcon=api" vertex="1" parent="WIyWlLk6GJQsqaUBKTNV-1">
          <mxGeometry x="165" y="70" width="105" height="90" as="geometry" />
        </mxCell>
        <mxCell id="7yxY5Xhsj-0c3NoLU8v4-1" value="NASA neoWs API" style="text;html=1;strokeColor=none;fillColor=none;align=center;verticalAlign=middle;whiteSpace=wrap;rounded=0;" vertex="1" parent="WIyWlLk6GJQsqaUBKTNV-1">
          <mxGeometry x="157.5" y="40" width="120" height="30" as="geometry" />
        </mxCell>
        <mxCell id="7yxY5Xhsj-0c3NoLU8v4-2" value="" style="endArrow=classic;html=1;rounded=0;entryX=0.75;entryY=0;entryDx=0;entryDy=0;exitX=0.667;exitY=0.989;exitDx=0;exitDy=0;exitPerimeter=0;" edge="1" parent="WIyWlLk6GJQsqaUBKTNV-1" source="7yxY5Xhsj-0c3NoLU8v4-0" target="7yxY5Xhsj-0c3NoLU8v4-4">
          <mxGeometry width="50" height="50" relative="1" as="geometry">
            <mxPoint x="270" y="170" as="sourcePoint" />
            <mxPoint x="440" y="350" as="targetPoint" />
          </mxGeometry>
        </mxCell>
        <mxCell id="7yxY5Xhsj-0c3NoLU8v4-3" value="" style="endArrow=classic;html=1;rounded=0;exitX=0.25;exitY=0;exitDx=0;exitDy=0;entryX=0.28;entryY=0.99;entryDx=0;entryDy=0;entryPerimeter=0;" edge="1" parent="WIyWlLk6GJQsqaUBKTNV-1" source="7yxY5Xhsj-0c3NoLU8v4-4" target="7yxY5Xhsj-0c3NoLU8v4-0">
          <mxGeometry width="50" height="50" relative="1" as="geometry">
            <mxPoint x="310" y="250" as="sourcePoint" />
            <mxPoint x="360" y="200" as="targetPoint" />
          </mxGeometry>
        </mxCell>
        <mxCell id="7yxY5Xhsj-0c3NoLU8v4-4" value="App.py" style="whiteSpace=wrap;html=1;aspect=fixed;" vertex="1" parent="WIyWlLk6GJQsqaUBKTNV-1">
          <mxGeometry x="177.5" y="240" width="80" height="80" as="geometry" />
        </mxCell>
        <mxCell id="7yxY5Xhsj-0c3NoLU8v4-5" value="Send a request" style="text;html=1;strokeColor=none;fillColor=none;align=center;verticalAlign=middle;whiteSpace=wrap;rounded=0;" vertex="1" parent="WIyWlLk6GJQsqaUBKTNV-1">
          <mxGeometry x="140" y="180" width="60" height="30" as="geometry" />
        </mxCell>
        <mxCell id="7yxY5Xhsj-0c3NoLU8v4-6" value="Recieve data&amp;nbsp;" style="text;html=1;strokeColor=none;fillColor=none;align=center;verticalAlign=middle;whiteSpace=wrap;rounded=0;" vertex="1" parent="WIyWlLk6GJQsqaUBKTNV-1">
          <mxGeometry x="230" y="180" width="60" height="30" as="geometry" />
        </mxCell>
        <mxCell id="7yxY5Xhsj-0c3NoLU8v4-8" value="" style="shape=image;verticalLabelPosition=bottom;labelBackgroundColor=default;verticalAlign=top;aspect=fixed;imageAspect=0;image=https://servicenav.coservit.com/wp-content/uploads/2022/05/18-1.jpg;clipPath=inset(7.67% 11.33% 8.33% 12.33%);" vertex="1" parent="WIyWlLk6GJQsqaUBKTNV-1">
          <mxGeometry x="377" y="170" width="72.6984126984127" height="80" as="geometry" />
        </mxCell>
        <mxCell id="7yxY5Xhsj-0c3NoLU8v4-9" value="" style="endArrow=classic;html=1;rounded=0;exitX=1;exitY=0.25;exitDx=0;exitDy=0;" edge="1" parent="WIyWlLk6GJQsqaUBKTNV-1" source="7yxY5Xhsj-0c3NoLU8v4-4" target="7yxY5Xhsj-0c3NoLU8v4-8">
          <mxGeometry width="50" height="50" relative="1" as="geometry">
            <mxPoint x="390" y="400" as="sourcePoint" />
            <mxPoint x="440" y="350" as="targetPoint" />
            <Array as="points">
              <mxPoint x="320" y="260" />
              <mxPoint x="320" y="210" />
            </Array>
          </mxGeometry>
        </mxCell>
        <mxCell id="7yxY5Xhsj-0c3NoLU8v4-10" value="Sends&lt;br&gt;cleaned data&amp;nbsp;" style="text;html=1;strokeColor=none;fillColor=none;align=center;verticalAlign=middle;whiteSpace=wrap;rounded=0;" vertex="1" parent="WIyWlLk6GJQsqaUBKTNV-1">
          <mxGeometry x="317" y="170" width="60" height="30" as="geometry" />
        </mxCell>
        <mxCell id="7yxY5Xhsj-0c3NoLU8v4-11" value="nasa.neos" style="text;html=1;strokeColor=none;fillColor=none;align=center;verticalAlign=middle;whiteSpace=wrap;rounded=0;" vertex="1" parent="WIyWlLk6GJQsqaUBKTNV-1">
          <mxGeometry x="384" y="250" width="60" height="30" as="geometry" />
        </mxCell>
        <mxCell id="7yxY5Xhsj-0c3NoLU8v4-12" value="" style="shape=image;verticalLabelPosition=bottom;labelBackgroundColor=default;verticalAlign=top;aspect=fixed;imageAspect=0;image=https://servicenav.coservit.com/wp-content/uploads/2022/05/18-1.jpg;clipPath=inset(7.67% 11.33% 8.33% 12.33%);" vertex="1" parent="WIyWlLk6GJQsqaUBKTNV-1">
          <mxGeometry x="377" y="310" width="72.6984126984127" height="80" as="geometry" />
        </mxCell>
        <mxCell id="7yxY5Xhsj-0c3NoLU8v4-13" value="nasa.raw_neos" style="text;html=1;strokeColor=none;fillColor=none;align=center;verticalAlign=middle;whiteSpace=wrap;rounded=0;" vertex="1" parent="WIyWlLk6GJQsqaUBKTNV-1">
          <mxGeometry x="383.35" y="390" width="60" height="30" as="geometry" />
        </mxCell>
        <mxCell id="7yxY5Xhsj-0c3NoLU8v4-14" value="" style="endArrow=classic;html=1;rounded=0;exitX=1;exitY=0.75;exitDx=0;exitDy=0;entryX=0;entryY=0.5;entryDx=0;entryDy=0;" edge="1" parent="WIyWlLk6GJQsqaUBKTNV-1" source="7yxY5Xhsj-0c3NoLU8v4-4" target="7yxY5Xhsj-0c3NoLU8v4-12">
          <mxGeometry width="50" height="50" relative="1" as="geometry">
            <mxPoint x="390" y="400" as="sourcePoint" />
            <mxPoint x="440" y="350" as="targetPoint" />
            <Array as="points">
              <mxPoint x="320" y="300" />
              <mxPoint x="320" y="350" />
            </Array>
          </mxGeometry>
        </mxCell>
        <mxCell id="7yxY5Xhsj-0c3NoLU8v4-15" value="Sends&lt;br&gt;raw data&amp;nbsp;" style="text;html=1;strokeColor=none;fillColor=none;align=center;verticalAlign=middle;whiteSpace=wrap;rounded=0;" vertex="1" parent="WIyWlLk6GJQsqaUBKTNV-1">
          <mxGeometry x="317" y="360" width="60" height="30" as="geometry" />
        </mxCell>
      </root>
    </mxGraphModel>
  </diagram>
</mxfile>
